<svg width="464" height="107" viewBox="0 0 464 107" fill="none" xmlns="http://www.w3.org/2000/svg">
<path d="M329.465 14.1915C319.774 5.59431 306.624 1.05017 291.434 1.05017H259.941C257.19 1.10009 254.568 2.22729 252.64 4.18922C250.712 6.15116 249.632 8.79102 249.632 11.5408C249.632 14.2905 250.712 16.9304 252.64 18.8923C254.568 20.8543 257.19 21.9815 259.941 22.0314H291.434C321.436 22.0314 324.658 44.0397 324.658 53.5015C324.658 62.9632 321.418 84.9715 291.434 84.9715H270.438V43.0126C270.438 40.2308 269.332 37.5629 267.363 35.5958C265.395 33.6288 262.725 32.5237 259.941 32.5237C257.157 32.5237 254.488 33.6288 252.519 35.5958C250.551 37.5629 249.445 40.2308 249.445 43.0126V95.4639C249.445 96.8413 249.716 98.2052 250.244 99.4778C250.771 100.75 251.544 101.907 252.519 102.881C253.494 103.855 254.651 104.627 255.924 105.154C257.198 105.681 258.563 105.953 259.941 105.953H291.434C306.637 105.953 319.788 101.409 329.465 92.8114C340.065 83.3946 345.671 69.8002 345.671 53.5015C345.671 37.2027 340.065 23.6083 329.465 14.1915Z" fill="white"/>
<path d="M181.208 0.00166825C179.813 -0.0236368 178.427 0.229002 177.131 0.744842C175.835 1.26068 174.655 2.02937 173.66 3.00602C172.665 3.98267 171.874 5.1477 171.335 6.43307C170.795 7.71843 170.517 9.09837 170.517 10.4923C170.517 11.8862 170.795 13.2661 171.335 14.5515C171.874 15.8368 172.665 17.0019 173.66 17.9785C174.655 18.9552 175.835 19.7239 177.131 20.2397C178.427 20.7555 179.813 21.0082 181.208 20.9829C188.733 20.9848 196.026 23.594 201.842 28.366C207.659 33.138 211.64 39.7776 213.107 47.1536C214.574 54.5296 213.436 62.1858 209.888 68.8176C206.339 75.4495 200.6 80.6469 193.647 83.5243C186.693 86.4017 178.957 86.7812 171.756 84.598C164.554 82.4149 158.332 77.8042 154.151 71.5514C149.97 65.2986 148.088 57.7906 148.825 50.3065C149.562 42.8224 152.873 35.8252 158.194 30.5069C160.162 28.5395 161.268 25.8712 161.268 23.0889C161.268 20.3067 160.162 17.6384 158.194 15.671C156.225 13.7036 153.555 12.5984 150.77 12.5984C147.986 12.5984 145.316 13.7036 143.347 15.671C138.357 20.6262 134.401 26.5212 131.707 33.0148C129.013 39.5083 127.635 46.4714 127.652 53.5008C127.652 82.9997 151.67 107 181.194 107C210.718 107 234.732 82.9997 234.732 53.5008C234.732 24.0019 210.728 0.00166825 181.208 0.00166825Z" fill="white"/>
<path d="M410.462 0.00166825C409.067 -0.0236368 407.682 0.229002 406.386 0.744842C405.09 1.26068 403.91 2.02937 402.914 3.00602C401.919 3.98267 401.129 5.1477 400.589 6.43307C400.049 7.71843 399.771 9.09837 399.771 10.4923C399.771 11.8862 400.049 13.2661 400.589 14.5515C401.129 15.8368 401.919 17.0019 402.914 17.9785C403.91 18.9552 405.09 19.7239 406.386 20.2397C407.682 20.7555 409.067 21.0082 410.462 20.9829C417.988 20.9848 425.28 23.594 431.096 28.366C436.913 33.138 440.894 39.7776 442.361 47.1536C443.828 54.5296 442.69 62.1858 439.142 68.8176C435.593 75.4495 429.854 80.6469 422.901 83.5243C415.948 86.4017 408.211 86.7812 401.01 84.598C393.808 82.4149 387.587 77.8042 383.405 71.5514C379.224 65.2986 377.342 57.7906 378.079 50.3065C378.816 42.8224 382.127 35.8252 387.448 30.5069C389.417 28.54 390.523 25.8721 390.523 23.0902C390.524 20.3082 389.418 17.6401 387.45 15.6727C385.481 13.7054 382.811 12.5999 380.027 12.5996C377.244 12.5993 374.573 13.7041 372.605 15.671C367.617 20.6272 363.663 26.5226 360.971 33.0161C358.279 39.5096 356.902 46.4721 356.92 53.5008C356.92 82.9997 380.938 107 410.462 107C439.986 107 464 82.9997 464 53.5008C464 24.0019 439.982 0.00166825 410.462 0.00166825Z" fill="white"/>
<path d="M10.8533 53.5001C9.47454 53.4987 8.109 53.7691 6.83489 54.2957C5.56078 54.8223 4.40311 55.5949 3.42815 56.5691C2.45319 57.5434 1.68008 58.7002 1.15306 59.9734C0.626047 61.2466 0.355481 62.6111 0.356847 63.9889V96.1507C0.356847 98.9325 1.46272 101.6 3.43119 103.567C5.39967 105.534 8.0695 106.64 10.8533 106.64C13.6372 106.64 16.307 105.534 18.2755 103.567C20.244 101.6 21.3498 98.9325 21.3498 96.1507V63.9889C21.3498 61.2071 20.244 58.5392 18.2755 56.5722C16.307 54.6052 13.6372 53.5001 10.8533 53.5001V53.5001Z" fill="white"/>
<path d="M103.992 1.54937C101.875 0.869884 99.5978 0.879145 97.487 1.57582C95.3762 2.27249 93.5411 3.62062 92.246 5.42607L55.6381 56.4699L19.0301 5.42607C18.227 4.30638 17.2112 3.35571 16.0404 2.62834C14.8697 1.90098 13.5671 1.41116 12.2069 1.18685C10.8467 0.962541 9.45568 1.00814 8.11316 1.32104C6.77063 1.63394 5.50291 2.20801 4.38241 3.01048C2.11944 4.63115 0.593439 7.08374 0.140099 9.82872C-0.0843722 11.1879 -0.0387404 12.5779 0.274387 13.9195C0.587515 15.2611 1.16201 16.5278 1.96507 17.6475L47.0831 80.5566C48.0532 81.9192 49.3355 83.0301 50.8228 83.7967C52.3101 84.5633 53.9594 84.9633 55.6329 84.9633C57.3064 84.9633 58.9556 84.5633 60.4429 83.7967C61.9303 83.0301 63.2125 81.9192 64.1827 80.5566V80.5566L90.2769 44.1827V96.1533C90.2769 98.9351 91.3827 101.603 93.3512 103.57C95.3197 105.537 97.9895 106.642 100.773 106.642C103.557 106.642 106.227 105.537 108.196 103.57C110.164 101.603 111.27 98.9351 111.27 96.1533V11.5368C111.27 9.31675 110.566 7.15382 109.258 5.35916C107.95 3.5645 106.106 2.23061 103.992 1.54937V1.54937Z" fill="white"/>
</svg>
